<svg version="1.1" preserveAspectRatio="none" xmlns="http://www.w3.org/2000/svg" width="500" height="500" viewBox="0 0 500 500"><rect width="100%" height="100%" fill="#F5F5F5" fill-opacity="1"/><svg viewBox="72.407 157.9999 413.9106 184" width="333" height="148.03196632316255" x="83.5px" y="175.984px" xmlns="http://www.w3.org/2000/svg" xmlns:xlink="http://www.w3.org/1999/xlink" preserveAspectRatio="none"><defs></defs><style>.companyName {fill:#08376B;fill-opacity:1;}.icon1 {fill:#35C0ED;fill-opacity:1;}.icon2 {fill:#9AEBA6;fill-opacity:1;}.icon3 {fill:#2F90B0;fill-opacity:1;}.icon3-str {stroke:#2F90B0;stroke-opacity:1;}.shapeStroke-str {stroke:#08376B;stroke-opacity:1;}.text {fill:#08376B;fill-opacity:1;}</style><g opacity="1" transform="rotate(0 72.407 172.9999)">
<svg width="133.3711" height="154" x="72.407" y="172.9999" version="1.1" preserveAspectRatio="none" viewBox="9.54699993133545 3.2899999618530273 80.906005859375 93.41999816894531">
  <g transform="matrix(1 0 0 1 0 0)" class="icon1"><g><path d="M31.112,39.094v21.812L49.999,71.81l18.89-10.903V39.094l-18.89-10.905L31.112,39.094z M60.925,56.308l-10.926,6.307   l-10.924-6.307V43.692l10.924-6.308l10.926,6.308V56.308z"></path><path d="M49.999,3.29L9.547,26.646v46.709L49.999,96.71l40.454-23.355V26.646L49.999,3.29z M82.19,68.584L49.999,87.169   L17.811,68.584v-37.17l32.188-18.585L82.19,31.414V68.584z"></path><path d="M20.368,32.89v34.218l29.631,17.108l29.634-17.108V32.89L49.999,15.782L20.368,32.89z M71.446,62.383l-21.447,12.38   l-21.444-12.38V37.618l21.444-12.382l21.447,12.382V62.383z"></path></g></g>
</svg>
</g><g opacity="1" transform="rotate(0 268.7781 172.9999)">
<svg width="189.3239" height="120" x="268.7781" y="172.9999" version="1.1" preserveAspectRatio="none" viewBox="6.4 -28.48 111.96000000000001 70.96000000000001">
  <g transform="matrix(1 0 0 1 0 0)" class="companyName"><path id="id-D6z1nYkh11" d="M24.48-28L6.40-28L6.40 0L24.48 0L24.48-2.20L10.04-2.20L10.04-13.92L22.44-13.92L22.44-15.76L10.04-15.76L10.04-25.80L24.48-25.80L24.48-28Z M33.08 0L33.08-28L29.68-28L29.68 0L33.08 0Z M44.96-20L41.56-20L41.56 0L44.96 0L44.96-20ZM41.08-26.32L41.08-26.32Q41.08-25.44 41.72-24.80Q42.36-24.16 43.24-24.16L43.24-24.16Q44.12-24.16 44.76-24.80Q45.40-25.44 45.40-26.32L45.40-26.32Q45.40-27.20 44.76-27.84Q44.12-28.48 43.24-28.48L43.24-28.48Q42.36-28.48 41.72-27.84Q41.08-27.20 41.08-26.32Z M54.08-18.40L50.60-18.40L50.60-20L54.08-20L54.08-26.16L57.48-26.16L57.48-20L62.32-20L62.32-18.40L57.48-18.40L57.48-5.12Q57.48-4.64 57.52-4.02Q57.56-3.40 57.76-2.86Q57.96-2.32 58.38-1.96Q58.80-1.60 59.56-1.60L59.56-1.60Q60.52-1.60 61.16-2.32Q61.80-3.04 62.20-3.88L62.20-3.88L64.08-1.96Q62.12 0 59.64 0L59.64 0Q58.60 0 57.60-0.36Q56.60-0.72 55.82-1.46Q55.04-2.20 54.56-3.36Q54.08-4.52 54.08-6.08L54.08-6.08L54.08-18.40Z M70.16-9.12L85.36-9.12L85.36-9.96Q85.36-12.64 84.60-14.60Q83.84-16.56 82.54-17.84Q81.24-19.12 79.52-19.76Q77.80-20.40 75.88-20.40L75.88-20.40Q73.84-20.40 72.12-19.70Q70.40-19 69.12-17.66Q67.84-16.32 67.12-14.42Q66.40-12.52 66.40-10.12L66.40-10.12Q66.40-8.12 67.02-6.22Q67.64-4.32 68.90-2.82Q70.16-1.32 72.10-0.42Q74.04 0.48 76.68 0.48L76.68 0.48Q79.24 0.48 81.40-0.42Q83.56-1.32 85.16-3L85.16-3L83.88-4.28Q83.04-3.56 82.30-2.96Q81.56-2.36 80.80-1.96Q80.04-1.56 79.22-1.34Q78.40-1.12 77.40-1.12L77.40-1.12Q76.28-1.12 75.02-1.46Q73.76-1.80 72.68-2.68Q71.60-3.56 70.88-5.12Q70.16-6.68 70.16-9.12L70.16-9.12ZM81.88-10.72L70.16-10.72Q70.16-12.32 70.50-13.82Q70.84-15.32 71.54-16.48Q72.24-17.64 73.32-18.34Q74.40-19.04 75.88-19.04L75.88-19.04Q78.72-19.04 80.30-16.82Q81.88-14.60 81.88-10.72L81.88-10.72Z M10.04 14L6.40 14L6.40 42L10.04 42L10.04 14Z M32.96 42L36.36 42L36.36 29.04Q36.36 28.32 36.24 27.06Q36.12 25.80 35.46 24.58Q34.80 23.36 33.36 22.46Q31.92 21.56 29.28 21.56L29.28 21.56Q28.12 21.52 26.68 22.02Q25.24 22.52 23.84 23.92L23.84 23.92L23.20 24.56L23.04 24.56L23.04 22L19.64 22L19.64 42L23.04 42L23.04 29.64Q23.04 28.08 23.48 26.96Q23.92 25.84 24.68 25.08Q25.44 24.32 26.42 23.96Q27.40 23.60 28.44 23.60L28.44 23.60Q30.12 23.60 31.04 24.26Q31.96 24.92 32.38 25.80Q32.80 26.68 32.88 27.56Q32.96 28.44 32.96 28.84L32.96 28.84L32.96 42Z M53.36 26.56L55.64 26.56Q55.64 25.48 55.08 24.56Q54.52 23.64 53.54 22.98Q52.56 22.32 51.26 21.94Q49.96 21.56 48.48 21.56L48.48 21.56Q47.08 21.56 45.86 21.92Q44.64 22.28 43.74 23Q42.84 23.72 42.32 24.78Q41.80 25.84 41.80 27.24L41.80 27.24Q41.80 29.16 42.68 30.28Q43.56 31.40 44.88 32.08Q46.20 32.76 47.74 33.18Q49.28 33.60 50.60 34.10Q51.92 34.60 52.80 35.36Q53.68 36.12 53.68 37.44L53.68 37.44Q53.68 38 53.50 38.60Q53.32 39.20 52.84 39.70Q52.36 40.20 51.52 40.54Q50.68 40.88 49.40 40.88L49.40 40.88Q47.80 40.88 46.70 40.38Q45.60 39.88 44.90 39.18Q44.20 38.48 43.90 37.76Q43.60 37.04 43.60 36.56L43.60 36.56L41.00 36.56Q41.00 37.68 41.52 38.74Q42.04 39.80 43.10 40.64Q44.16 41.48 45.70 41.98Q47.24 42.48 49.28 42.48L49.28 42.48Q52.96 42.48 54.82 40.86Q56.68 39.24 56.68 36.60L56.68 36.60Q56.68 34.68 55.78 33.52Q54.88 32.36 53.52 31.66Q52.16 30.96 50.58 30.52Q49.00 30.08 47.64 29.60Q46.28 29.12 45.38 28.44Q44.48 27.76 44.48 26.52L44.48 26.52Q44.48 26 44.68 25.42Q44.88 24.84 45.36 24.34Q45.84 23.84 46.64 23.50Q47.44 23.16 48.64 23.16L48.64 23.16Q49.84 23.16 50.72 23.50Q51.60 23.84 52.20 24.34Q52.80 24.84 53.08 25.44Q53.36 26.04 53.36 26.56L53.36 26.56Z M65.48 22L62.08 22L62.08 35Q62.08 35.72 62.22 36.98Q62.36 38.24 63.04 39.46Q63.72 40.68 65.18 41.58Q66.64 42.48 69.28 42.48L69.28 42.48Q70.44 42.52 71.82 42.02Q73.20 41.52 74.60 40.12L74.60 40.12L75.24 39.48L75.40 39.48L75.40 42L78.80 42L78.80 22L75.40 22L75.40 34.40Q75.40 35.96 74.96 37.08Q74.52 38.20 73.80 38.94Q73.08 39.68 72.12 40.04Q71.16 40.40 70.12 40.40L70.12 40.40Q68.44 40.40 67.50 39.74Q66.56 39.08 66.10 38.20Q65.64 37.32 65.56 36.46Q65.48 35.60 65.48 35.20L65.48 35.20L65.48 22Z M88.72 22L85.32 22L85.32 42L88.72 42L88.72 29.92Q88.72 28.28 89.10 27.14Q89.48 26 90.08 25.28Q90.68 24.56 91.40 24.24Q92.12 23.92 92.80 23.92L92.80 23.92Q93.72 23.92 94.50 24.52Q95.28 25.12 95.64 25.64L95.64 25.64L97 23.16Q96.64 22.68 96.14 22.36Q95.64 22.04 95.14 21.86Q94.64 21.68 94.22 21.62Q93.80 21.56 93.60 21.56L93.60 21.56Q91.92 21.56 90.80 22.48Q89.68 23.40 88.96 25.20L88.96 25.20L88.72 25.20L88.72 22Z M103.16 32.88L118.36 32.88L118.36 32.04Q118.36 29.36 117.60 27.40Q116.84 25.44 115.54 24.16Q114.24 22.88 112.52 22.24Q110.80 21.60 108.88 21.60L108.88 21.60Q106.84 21.60 105.12 22.30Q103.40 23 102.12 24.34Q100.84 25.68 100.12 27.58Q99.40 29.48 99.40 31.88L99.40 31.88Q99.40 33.88 100.02 35.78Q100.64 37.68 101.90 39.18Q103.16 40.68 105.10 41.58Q107.04 42.48 109.68 42.48L109.68 42.48Q112.24 42.48 114.40 41.58Q116.56 40.68 118.16 39L118.16 39L116.88 37.72Q116.04 38.44 115.30 39.04Q114.56 39.64 113.80 40.04Q113.04 40.44 112.22 40.66Q111.40 40.88 110.40 40.88L110.40 40.88Q109.28 40.88 108.02 40.54Q106.76 40.20 105.68 39.32Q104.60 38.44 103.88 36.88Q103.16 35.32 103.16 32.88L103.16 32.88ZM114.88 31.28L103.16 31.28Q103.16 29.68 103.50 28.18Q103.84 26.68 104.54 25.52Q105.24 24.36 106.32 23.66Q107.40 22.96 108.88 22.96L108.88 22.96Q111.72 22.96 113.30 25.18Q114.88 27.40 114.88 31.28L114.88 31.28Z"/></g>
</svg>
</g><g opacity="1" transform="rotate(0 235.7781 157.9999)">
<svg width="3" height="184" x="235.7781" y="157.9999" version="1.1" preserveAspectRatio="none" viewBox="0 0 3 184">
  <defs><rect x="0" y="0" width="3" height="184" rx="0px" ry="0px" id="id-tBXipXk0b1719399264136"></rect></defs><use class="companyName shapeStroke-str" style="stroke-width:0;" xlink:href="#id-tBXipXk0b1719399264136"></use>
</svg>
</g><g opacity="1" transform="rotate(0 268.7781 308.9999)">
<svg width="217.5395" height="18" x="268.7781" y="308.9999" version="1.1" preserveAspectRatio="none" viewBox="2.08 -29.68 455.00000000000006 37.64">
  <g transform="matrix(1 0 0 1 0 0)" class="text"><path id="id-D-YM9nyY421" d="M16.80 0.24Q12.64 0.24 9.26-1.62Q5.88-3.48 3.98-6.72Q2.08-9.96 2.08-14L2.08-14Q2.08-18.04 3.98-21.28Q5.88-24.52 9.26-26.38Q12.64-28.24 16.80-28.24L16.80-28.24Q20.96-28.24 24.30-26.40Q27.64-24.56 29.56-21.30Q31.48-18.04 31.48-14L31.48-14Q31.48-9.96 29.56-6.70Q27.64-3.44 24.30-1.60Q20.96 0.24 16.80 0.24L16.80 0.24ZM16.80-2.40Q20.12-2.40 22.80-3.90Q25.48-5.40 27-8.06Q28.52-10.72 28.52-14L28.52-14Q28.52-17.28 27-19.94Q25.48-22.60 22.80-24.10Q20.12-25.60 16.80-25.60L16.80-25.60Q13.48-25.60 10.78-24.10Q8.08-22.60 6.54-19.94Q5-17.28 5-14L5-14Q5-10.72 6.54-8.06Q8.08-5.40 10.78-3.90Q13.48-2.40 16.80-2.40L16.80-2.40Z M49.44-21.20Q53.40-21.20 55.74-18.90Q58.08-16.60 58.08-12.20L58.08-12.20L58.08 0L55.24 0L55.24-11.92Q55.24-15.20 53.60-16.92Q51.96-18.64 48.92-18.64L48.92-18.64Q45.52-18.64 43.54-16.62Q41.56-14.60 41.56-11.04L41.56-11.04L41.56 0L38.72 0L38.72-21.04L41.44-21.04L41.44-17.16Q42.60-19.08 44.66-20.14Q46.72-21.20 49.44-21.20L49.44-21.20Z M67 0L67-29.68L69.84-29.68L69.84 0L67 0Z M78.96 0L78.96-21.04L81.80-21.04L81.80 0L78.96 0ZM80.40-25.64Q79.52-25.64 78.92-26.24Q78.32-26.84 78.32-27.68L78.32-27.68Q78.32-28.48 78.92-29.08Q79.52-29.68 80.40-29.68L80.40-29.68Q81.28-29.68 81.88-29.10Q82.48-28.52 82.48-27.72L82.48-27.72Q82.48-26.84 81.88-26.24Q81.28-25.64 80.40-25.64L80.40-25.64Z M101.64-21.20Q105.60-21.20 107.94-18.90Q110.28-16.60 110.28-12.20L110.28-12.20L110.28 0L107.44 0L107.44-11.92Q107.44-15.20 105.80-16.92Q104.16-18.64 101.12-18.64L101.12-18.64Q97.72-18.64 95.74-16.62Q93.76-14.60 93.76-11.04L93.76-11.04L93.76 0L90.92 0L90.92-21.04L93.64-21.04L93.64-17.16Q94.80-19.08 96.86-20.14Q98.92-21.20 101.64-21.20L101.64-21.20Z M137.64-10.52L137.60-9.64L120.00-9.64Q120.24-6.36 122.52-4.34Q124.80-2.32 128.28-2.32L128.28-2.32Q130.24-2.32 131.88-3.02Q133.52-3.72 134.72-5.08L134.72-5.08L136.32-3.24Q134.92-1.56 132.82-0.68Q130.72 0.20 128.20 0.20L128.20 0.20Q124.96 0.20 122.46-1.18Q119.96-2.56 118.56-5Q117.16-7.44 117.16-10.52L117.16-10.52Q117.16-13.60 118.50-16.04Q119.84-18.48 122.18-19.84Q124.52-21.20 127.44-21.20L127.44-21.20Q130.36-21.20 132.68-19.84Q135.00-18.48 136.32-16.06Q137.64-13.64 137.64-10.52L137.64-10.52ZM127.44-18.76Q124.40-18.76 122.34-16.82Q120.28-14.88 120.00-11.76L120.00-11.76L134.92-11.76Q134.64-14.88 132.58-16.82Q130.52-18.76 127.44-18.76L127.44-18.76Z M167.40-28Q172.76-28 175.80-25.44Q178.84-22.88 178.84-18.40L178.84-18.40Q178.84-13.92 175.80-11.38Q172.76-8.84 167.40-8.84L167.40-8.84L159.88-8.84L159.88 0L156.92 0L156.92-28L167.40-28ZM167.32-11.44Q171.48-11.44 173.68-13.26Q175.88-15.08 175.88-18.40L175.88-18.40Q175.88-21.80 173.68-23.62Q171.48-25.44 167.32-25.44L167.32-25.44L159.88-25.44L159.88-11.44L167.32-11.44Z M193.00-21.20Q197.12-21.20 199.32-19.14Q201.52-17.08 201.52-13.04L201.52-13.04L201.52 0L198.80 0L198.80-3.28Q197.84-1.64 195.98-0.72Q194.12 0.20 191.56 0.20L191.56 0.20Q188.04 0.20 185.96-1.48Q183.88-3.16 183.88-5.92L183.88-5.92Q183.88-8.60 185.82-10.24Q187.76-11.88 192.00-11.88L192.00-11.88L198.68-11.88L198.68-13.16Q198.68-15.88 197.16-17.30Q195.64-18.72 192.72-18.72L192.72-18.72Q190.72-18.72 188.88-18.06Q187.04-17.40 185.72-16.24L185.72-16.24L184.44-18.36Q186.04-19.72 188.28-20.46Q190.52-21.20 193.00-21.20L193.00-21.20ZM192.00-2.04Q194.40-2.04 196.12-3.14Q197.84-4.24 198.68-6.32L198.68-6.32L198.68-9.76L192.08-9.76Q186.68-9.76 186.68-6L186.68-6Q186.68-4.16 188.08-3.10Q189.48-2.04 192.00-2.04L192.00-2.04Z M224.92-21.04L227.72-21.04L217.20 2.52Q215.92 5.48 214.24 6.72Q212.56 7.96 210.20 7.96L210.20 7.96Q208.68 7.96 207.36 7.48Q206.04 7 205.08 6.04L205.08 6.04L206.40 3.92Q208.00 5.52 210.24 5.52L210.24 5.52Q211.68 5.52 212.70 4.72Q213.72 3.92 214.60 2L214.60 2L215.52-0.04L206.12-21.04L209.08-21.04L217.00-3.16L224.92-21.04Z M235.64-16.92Q236.64-19.04 238.62-20.12Q240.60-21.20 243.52-21.20L243.52-21.20L243.52-18.44L242.84-18.48Q239.52-18.48 237.64-16.44Q235.76-14.40 235.76-10.72L235.76-10.72L235.76 0L232.92 0L232.92-21.04L235.64-21.04L235.64-16.92Z M258.24 0.20Q255.20 0.20 252.76-1.18Q250.32-2.56 248.92-5Q247.52-7.44 247.52-10.52L247.52-10.52Q247.52-13.60 248.92-16.04Q250.32-18.48 252.76-19.84Q255.20-21.20 258.24-21.20L258.24-21.20Q261.28-21.20 263.72-19.84Q266.16-18.48 267.54-16.04Q268.92-13.60 268.92-10.52L268.92-10.52Q268.92-7.44 267.54-5Q266.16-2.56 263.72-1.18Q261.28 0.20 258.24 0.20L258.24 0.20ZM258.24-2.32Q260.48-2.32 262.26-3.34Q264.04-4.36 265.04-6.24Q266.04-8.12 266.04-10.52L266.04-10.52Q266.04-12.92 265.04-14.80Q264.04-16.68 262.26-17.70Q260.48-18.72 258.24-18.72L258.24-18.72Q256.00-18.72 254.22-17.70Q252.44-16.68 251.42-14.80Q250.40-12.92 250.40-10.52L250.40-10.52Q250.40-8.12 251.42-6.24Q252.44-4.36 254.22-3.34Q256.00-2.32 258.24-2.32L258.24-2.32Z M275.92 0L275.92-29.68L278.76-29.68L278.76 0L275.92 0Z M287.88 0L287.88-29.68L290.72-29.68L290.72 0L287.88 0Z M319.84 0.24Q316.72 0.24 313.86-0.76Q311.00-1.76 309.44-3.40L309.44-3.40L310.60-5.68Q312.12-4.16 314.64-3.22Q317.16-2.28 319.84-2.28L319.84-2.28Q323.60-2.28 325.48-3.66Q327.36-5.04 327.36-7.24L327.36-7.24Q327.36-8.92 326.34-9.92Q325.32-10.92 323.84-11.46Q322.36-12 319.72-12.64L319.72-12.64Q316.56-13.44 314.68-14.18Q312.80-14.92 311.46-16.44Q310.12-17.96 310.12-20.56L310.12-20.56Q310.12-22.68 311.24-24.42Q312.36-26.16 314.68-27.20Q317.00-28.24 320.44-28.24L320.44-28.24Q322.84-28.24 325.14-27.58Q327.44-26.92 329.12-25.76L329.12-25.76L328.12-23.40Q326.36-24.56 324.36-25.14Q322.36-25.72 320.44-25.72L320.44-25.72Q316.76-25.72 314.90-24.30Q313.04-22.88 313.04-20.64L313.04-20.64Q313.04-18.96 314.06-17.94Q315.08-16.92 316.62-16.38Q318.16-15.84 320.76-15.20L320.76-15.20Q323.84-14.44 325.74-13.70Q327.64-12.96 328.96-11.46Q330.28-9.96 330.28-7.40L330.28-7.40Q330.28-5.28 329.14-3.54Q328.00-1.80 325.64-0.78Q323.28 0.24 319.84 0.24L319.84 0.24Z M351.80-21.04L354.60-21.04L344.08 2.52Q342.80 5.48 341.12 6.72Q339.44 7.96 337.08 7.96L337.08 7.96Q335.56 7.96 334.24 7.48Q332.92 7 331.96 6.04L331.96 6.04L333.28 3.92Q334.88 5.52 337.12 5.52L337.12 5.52Q338.56 5.52 339.58 4.72Q340.60 3.92 341.48 2L341.48 2L342.40-0.04L333.00-21.04L335.96-21.04L343.88-3.16L351.80-21.04Z M365.20 0.20Q362.64 0.20 360.30-0.54Q357.96-1.28 356.64-2.40L356.64-2.40L357.92-4.64Q359.24-3.60 361.24-2.94Q363.24-2.28 365.40-2.28L365.40-2.28Q368.28-2.28 369.66-3.18Q371.04-4.08 371.04-5.72L371.04-5.72Q371.04-6.88 370.28-7.54Q369.52-8.20 368.36-8.54Q367.20-8.88 365.28-9.20L365.28-9.20Q362.72-9.68 361.16-10.18Q359.60-10.68 358.50-11.88Q357.40-13.08 357.40-15.20L357.40-15.20Q357.40-17.84 359.60-19.52Q361.80-21.20 365.72-21.20L365.72-21.20Q367.76-21.20 369.80-20.66Q371.84-20.12 373.16-19.24L373.16-19.24L371.92-16.96Q369.32-18.76 365.72-18.76L365.72-18.76Q363.00-18.76 361.62-17.80Q360.24-16.84 360.24-15.28L360.24-15.28Q360.24-14.08 361.02-13.36Q361.80-12.64 362.96-12.30Q364.12-11.96 366.16-11.60L366.16-11.60Q368.68-11.12 370.20-10.64Q371.72-10.16 372.80-9Q373.88-7.84 373.88-5.80L373.88-5.80Q373.88-3.04 371.58-1.42Q369.28 0.20 365.20 0.20L365.20 0.20Z M390.40-3.32L391.40-1.28Q390.60-0.56 389.42-0.18Q388.24 0.20 386.96 0.20L386.96 0.20Q384.00 0.20 382.40-1.40Q380.80-3 380.80-5.92L380.80-5.92L380.80-18.64L377.04-18.64L377.04-21.04L380.80-21.04L380.80-25.64L383.64-25.64L383.64-21.04L390.04-21.04L390.04-18.64L383.64-18.64L383.64-6.08Q383.64-4.20 384.58-3.22Q385.52-2.24 387.28-2.24L387.28-2.24Q388.16-2.24 388.98-2.52Q389.80-2.80 390.40-3.32L390.40-3.32Z M415.36-10.52L415.32-9.64L397.72-9.64Q397.96-6.36 400.24-4.34Q402.52-2.32 406.00-2.32L406.00-2.32Q407.96-2.32 409.60-3.02Q411.24-3.72 412.44-5.08L412.44-5.08L414.04-3.24Q412.64-1.56 410.54-0.68Q408.44 0.20 405.92 0.20L405.92 0.20Q402.68 0.20 400.18-1.18Q397.68-2.56 396.28-5Q394.88-7.44 394.88-10.52L394.88-10.52Q394.88-13.60 396.22-16.04Q397.56-18.48 399.90-19.84Q402.24-21.20 405.16-21.20L405.16-21.20Q408.08-21.20 410.40-19.84Q412.72-18.48 414.04-16.06Q415.36-13.64 415.36-10.52L415.36-10.52ZM405.16-18.76Q402.12-18.76 400.06-16.82Q398.00-14.88 397.72-11.76L397.72-11.76L412.64-11.76Q412.36-14.88 410.30-16.82Q408.24-18.76 405.16-18.76L405.16-18.76Z M448.60-21.20Q452.56-21.20 454.82-18.92Q457.08-16.64 457.08-12.20L457.08-12.20L457.08 0L454.24 0L454.24-11.92Q454.24-15.20 452.66-16.92Q451.08-18.64 448.20-18.64L448.20-18.64Q444.92-18.64 443.04-16.62Q441.16-14.60 441.16-11.04L441.16-11.04L441.16 0L438.32 0L438.32-11.92Q438.32-15.20 436.74-16.92Q435.16-18.64 432.24-18.64L432.24-18.64Q429.00-18.64 427.10-16.62Q425.20-14.60 425.20-11.04L425.20-11.04L425.20 0L422.36 0L422.36-21.04L425.08-21.04L425.08-17.20Q426.20-19.12 428.20-20.16Q430.20-21.20 432.80-21.20L432.80-21.20Q435.44-21.20 437.38-20.08Q439.32-18.96 440.28-16.76L440.28-16.76Q441.44-18.84 443.62-20.02Q445.80-21.20 448.60-21.20L448.60-21.20Z"/></g>
</svg>
</g></svg></svg>